<svg width="651" height="78" viewBox="0 0 651 78" fill="none" xmlns="http://www.w3.org/2000/svg">
<rect x="0.5" y="0.5" width="650" height="77" rx="4.5" stroke="#9747FF" stroke-dasharray="10 5"/>
<g clip-path="url(#clip0_9_980)">
<g clip-path="url(#clip1_9_980)">
<path d="M34.905 30.2168L39.388 31.4127L36.3349 20L31.1645 21.3917L33.0049 28.3119C33.2508 29.2405 33.9788 29.9709 34.905 30.2168Z" fill="#F34E3F"/>
<path d="M27.326 53.4623L37.1059 43.7015L40.6651 57L45.8356 55.6083L40.6842 36.2991L21.375 31.1525L20 36.3516L33.2866 39.9036L23.5472 49.6501L27.326 53.4623Z" fill="#F34E3F"/>
<path d="M45.561 37.5905L46.7617 42.0926C47.01 43.0212 47.7381 43.7492 48.6619 43.9951L55.6226 45.8451L56.9976 40.646L45.561 37.5905Z" fill="#F34E3F"/>
<path d="M49.6716 23.5353L45.2221 27.9801C44.7303 28.4718 44.451 29.1235 44.4319 29.8205L44.3603 32.6397L46.967 32.7304C46.9336 32.7304 47.0004 32.7304 46.967 32.7304C47.6808 32.7304 48.3515 32.4511 48.8552 31.9474L53.4504 27.3475L49.6716 23.5353Z" fill="#F34E3F"/>
</g>
</g>
<path d="M83.0828 37.4718C81.5032 36.8092 79.5275 36.255 77.1557 35.8116C75.5374 35.4743 74.3249 35.1755 73.5158 34.9153C72.7067 34.6551 72.1077 34.3225 71.7164 33.9201C71.3251 33.5177 71.1295 32.9635 71.1295 32.2624C71.1295 31.4287 71.3565 30.7853 71.813 30.3299C72.2695 29.8745 72.8902 29.5564 73.6728 29.3733C74.4554 29.1926 75.4336 29.101 76.6074 29.101C78.0155 29.101 79.4188 29.2697 80.8148 29.6095C82.2109 29.9492 83.7156 30.4817 85.3339 31.2094L86.1937 26.3686C84.7325 25.665 83.2012 25.1445 81.595 24.8072C79.9912 24.4699 78.3271 24.2988 76.6074 24.2988C74.5471 24.2988 72.668 24.6169 70.9725 25.2554C69.2769 25.8939 67.9196 26.8168 66.9027 28.0264C65.8859 29.236 65.3762 30.713 65.3762 32.4575C65.3762 33.9924 65.7675 35.2815 66.5501 36.3225C67.3326 37.3634 68.4799 38.2019 69.9943 38.8404C71.5063 39.479 73.4385 40.0043 75.7862 40.4211C77.4552 40.7609 78.7063 41.0645 79.542 41.3392C80.3777 41.6114 81.0298 41.9897 81.4984 42.4716C81.9669 42.9535 82.2036 43.6499 82.2036 44.5607C82.2036 45.3944 81.9355 46.0498 81.4018 46.5317C80.868 47.0136 80.1627 47.3389 79.2884 47.5076C78.414 47.6763 77.3634 47.7606 76.1388 47.7606C74.4433 47.7606 72.5835 47.5389 70.5643 47.098C68.5427 46.657 66.8013 46.0571 65.34 45.3029L64.8304 50.1051C66.2385 50.9123 67.9268 51.5243 69.8977 51.9388C71.8662 52.3556 73.9723 52.5628 76.2161 52.5628C78.4599 52.5628 80.31 52.2448 82.0853 51.6062C83.8581 50.9701 85.2735 50.0328 86.3314 48.7967C87.3869 47.5606 87.9158 46.0571 87.9158 44.2884C87.9158 42.6499 87.5052 41.2693 86.684 40.1512C85.8628 39.0332 84.6624 38.1417 83.0852 37.4766L83.0828 37.4718Z" fill="#F8F8F8"/>
<path d="M107.441 31.6551C105.642 30.7057 103.632 30.231 101.415 30.231C99.1977 30.231 97.123 30.7057 95.3501 31.6551C93.5749 32.6044 92.1861 33.9321 91.1838 35.6356C90.179 37.3416 89.6766 39.2596 89.6766 41.3945C89.6766 43.5293 90.1717 45.4016 91.1644 47.0931C92.1547 48.7846 93.5435 50.1195 95.3308 51.0953C97.1181 52.0712 99.1446 52.5603 101.415 52.5603C103.685 52.5603 105.642 52.0712 107.441 51.0953C109.241 50.1195 110.644 48.7798 111.649 47.0738C112.653 45.3702 113.156 43.4643 113.156 41.3559C113.156 39.2476 112.653 37.3103 111.649 35.6188C110.644 33.9273 109.243 32.6068 107.441 31.6575V31.6551ZM107.089 44.7895C106.54 45.7799 105.77 46.5533 104.779 47.1123C103.787 47.6714 102.678 47.9509 101.454 47.9509C100.229 47.9509 99.0407 47.6714 98.0504 47.1123C97.0578 46.5533 96.2752 45.7726 95.7028 44.7703C95.1279 43.7679 94.8429 42.6161 94.8429 41.315C94.8429 40.0138 95.1303 38.8813 95.7028 37.9199C96.2776 36.9585 97.0602 36.2019 98.0504 35.6549C99.0407 35.108 100.164 34.8357 101.415 34.8357C102.666 34.8357 103.789 35.108 104.779 35.6549C105.77 36.2019 106.54 36.9705 107.089 37.9585C107.637 38.9488 107.91 40.0933 107.91 41.3945C107.91 42.6956 107.637 43.8016 107.089 44.7895Z" fill="#F8F8F8"/>
<path d="M131.425 43.3992C131.326 43.6594 131.217 43.9148 131.092 44.1654C130.531 45.2835 129.754 46.1702 128.763 46.8207C127.771 47.4713 126.665 47.7966 125.438 47.7966C123.819 47.7966 122.614 47.3605 121.819 46.4882C121.022 45.616 120.626 44.3751 120.626 42.7607V30.6599H115.424V43.5413C115.424 45.363 115.788 46.9509 116.52 48.3026C117.25 49.6568 118.267 50.6977 119.573 51.4254C120.877 52.1531 122.377 52.5193 124.073 52.5193C126.628 52.5193 128.652 51.8688 130.138 50.5676C130.626 50.1411 131.051 49.6737 131.43 49.1676V52.0904H136.632V30.6599H131.43V43.3992H131.425Z" fill="#F8F8F8"/>
<path d="M151.028 30.2695C148.576 30.2695 146.736 31.0767 145.511 32.6887C145.221 33.0718 144.96 33.4983 144.728 33.9682V30.6598H139.524V52.0904H144.728V43.269C144.728 40.8764 145.243 38.9559 146.274 37.5126C147.303 36.0693 148.706 35.3464 150.479 35.3464H151.772C152.032 35.3729 152.267 35.385 152.477 35.385H153.102L153.689 30.5442C152.776 30.3635 151.89 30.2719 151.028 30.2719V30.2695Z" fill="#F8F8F8"/>
<path d="M162.16 35.5971C163.165 35.0646 164.305 34.7971 165.585 34.7971C166.628 34.7971 167.606 34.9537 168.519 35.2646C169.432 35.5778 170.357 36.0838 171.297 36.7874L173.449 32.9225C172.171 31.9852 170.867 31.3033 169.536 30.8744C168.205 30.4455 166.744 30.231 165.155 30.231C163.041 30.231 161.112 30.6937 159.363 31.6165C157.614 32.5394 156.233 33.855 155.216 35.5585C154.199 37.2645 153.689 39.209 153.689 41.3945C153.689 43.5799 154.184 45.5124 155.177 47.1919C156.167 48.8713 157.544 50.1725 159.305 51.0953C161.066 52.0182 163.003 52.4808 165.116 52.4808C166.732 52.4808 168.174 52.2784 169.44 51.876C170.705 51.4736 172.041 50.8014 173.449 49.8665L171.374 46.0811C170.435 46.7051 169.49 47.1798 168.536 47.5051C167.585 47.8304 166.611 47.9942 165.621 47.9942C164.343 47.9942 163.196 47.734 162.177 47.2135C161.16 46.6931 160.358 45.9317 159.771 44.9293C159.184 43.9269 158.889 42.7511 158.889 41.3969C158.889 40.0427 159.182 38.8403 159.771 37.8645C160.358 36.8886 161.153 36.1344 162.157 35.5995L162.16 35.5971Z" fill="#F8F8F8"/>
<path d="M190.274 31.4984C188.682 30.6791 186.933 30.2695 185.03 30.2695C182.76 30.2695 180.758 30.7442 179.023 31.6935C177.289 32.6429 175.951 33.9633 175.012 35.6549C174.072 37.3464 173.603 39.2595 173.603 41.392C173.603 43.5244 174.099 45.3678 175.091 47.0713C176.082 48.7773 177.478 50.1098 179.277 51.0736C181.076 52.0374 183.098 52.5169 185.342 52.5169C186.907 52.5169 188.303 52.353 189.527 52.0278C190.754 51.7025 191.926 51.1627 193.049 50.4085L191.718 46.1533C190.882 46.7533 189.919 47.2135 188.822 47.5388C187.726 47.8641 186.656 48.0279 185.615 48.0279C184.207 48.0279 182.994 47.7749 181.975 47.2665C180.958 46.7581 180.175 46.0111 179.627 45.0208C179.328 44.481 179.113 43.8666 178.977 43.1871H194.73C194.911 42.6666 195.063 42.1124 195.179 41.5269C195.298 40.9414 195.356 40.3246 195.356 39.674C195.356 37.9054 194.906 36.303 194.005 34.8717C193.105 33.4405 191.861 32.3152 190.269 31.496L190.274 31.4984ZM179.533 37.8427C180.016 36.8548 180.719 36.0934 181.646 35.5585C182.571 35.026 183.675 34.7585 184.953 34.7585C186.1 34.7585 187.09 34.9874 187.926 35.4404C188.762 35.8958 189.373 36.5922 189.764 37.5295C189.994 38.0765 190.126 38.7029 190.168 39.4041H179.004C179.125 38.8427 179.299 38.3198 179.533 37.8427Z" fill="#F8F8F8"/>
<path d="M215.12 33.5875C214.26 32.4695 213.176 31.631 211.871 31.0695C210.567 30.5105 209.029 30.231 207.253 30.231C205.324 30.231 203.594 30.6864 202.07 31.5972C200.544 32.508 199.343 33.7707 198.471 35.3826C197.597 36.997 197.16 38.8042 197.16 40.809C197.16 42.8137 197.597 44.5124 198.471 46.0594C199.346 47.6087 200.558 48.8304 202.111 49.7291C203.662 50.6279 205.403 51.0761 207.336 51.0761C209.058 51.0761 210.565 50.8038 211.855 50.2568C213.147 49.7098 214.209 48.8785 215.043 47.7581V48.7725C215.043 50.6978 214.422 52.2206 213.183 53.3386C211.944 54.4567 210.229 55.0181 208.038 55.0181C206.604 55.0181 205.208 54.8036 203.853 54.3747C202.495 53.9458 201.283 53.3531 200.213 52.5989L198.179 56.2686C199.587 57.23 201.172 57.9674 202.932 58.4734C204.693 58.9818 206.592 59.2348 208.625 59.2348C212.277 59.2348 215.135 58.2589 217.195 56.3072C219.255 54.3555 220.286 51.6375 220.286 48.1485V30.6599H215.122V33.5875H215.12ZM214.238 44.1076C213.678 45.057 212.915 45.7871 211.949 46.2931C210.983 46.8015 209.862 47.0545 208.584 47.0545C207.41 47.0545 206.348 46.7871 205.396 46.2545C204.444 45.722 203.693 44.9727 203.147 44.0088C202.599 43.0474 202.326 41.98 202.326 40.809C202.326 39.6379 202.599 38.4861 203.147 37.5103C203.696 36.5344 204.444 35.773 205.396 35.226C206.348 34.6791 207.41 34.4068 208.584 34.4068C209.862 34.4068 210.985 34.6598 211.949 35.1682C212.912 35.6766 213.676 36.4115 214.238 37.3729C214.799 38.3368 215.079 39.4548 215.079 40.7294C215.079 42.0041 214.799 43.1559 214.238 44.1052V44.1076Z" fill="#F8F8F8"/>
<path d="M229.245 32.6887C228.955 33.0718 228.694 33.4983 228.462 33.9682V30.6599H223.257V52.0904H228.462V43.2691C228.462 40.8764 228.977 38.956 230.008 37.5126C231.037 36.0693 232.44 35.3465 234.213 35.3465H235.505C235.766 35.373 236 35.385 236.21 35.385H236.836L237.423 30.5442C236.51 30.3635 235.624 30.2719 234.761 30.2719C232.31 30.2719 230.469 31.0791 229.245 32.6911V32.6887Z" fill="#F8F8F8"/>
<path d="M255.166 32.5924C253.482 31.0189 250.934 30.231 247.516 30.231C244.908 30.231 242.285 30.6599 239.652 31.5201L240.278 36.0862C241.241 35.6694 242.299 35.3513 243.447 35.1296C244.594 34.908 245.768 34.7971 246.968 34.7971C248.794 34.7971 250.171 35.1489 251.096 35.8501C252.021 36.5537 252.485 37.5946 252.485 38.9729V39.1367C251.634 39.062 250.709 38.9922 249.707 38.9319C248.403 38.8548 247.125 38.8138 245.872 38.8138C243.055 38.8138 240.966 39.4524 239.611 40.727C238.254 42.0017 237.577 43.6426 237.577 45.6449C237.577 46.9726 237.877 48.1557 238.478 49.1966C239.077 50.2375 239.947 51.052 241.08 51.6351C242.215 52.2206 243.524 52.5146 245.012 52.5146C246.5 52.5146 247.777 52.3001 248.925 51.8712C250.072 51.4423 250.999 50.8833 251.702 50.1917C252.002 49.8978 252.26 49.599 252.485 49.2954V52.0857H257.69V39.3223C257.69 36.4091 256.849 34.1634 255.166 32.5876V32.5924ZM249.982 47.3461C249.123 47.828 248.038 48.0689 246.734 48.0689C245.43 48.0689 244.328 47.8424 243.584 47.3846C242.84 46.9292 242.468 46.2594 242.468 45.3751C242.468 44.4377 242.845 43.7221 243.604 43.2281C244.36 42.7342 245.637 42.486 247.439 42.486C248.429 42.486 249.33 42.5053 250.139 42.5438C250.934 42.5824 251.714 42.6523 252.485 42.7535C252.465 43.7341 252.267 44.6136 251.881 45.3919C251.477 46.2112 250.845 46.8617 249.982 47.3437V47.3461Z" fill="#F8F8F8"/>
<path d="M278.408 31.6743C276.804 30.7129 275.048 30.231 273.145 30.231C271.657 30.231 270.276 30.484 268.998 30.9924C267.72 31.5009 266.612 32.2358 265.672 33.1972V30.6599H260.467V58.8035H265.672V49.6303C266.271 50.2809 266.969 50.8158 267.766 51.2303C268.561 51.6471 269.397 51.9724 270.271 52.2061C271.145 52.4399 272.09 52.5579 273.109 52.5579C275.065 52.5579 276.838 52.0953 278.43 51.1724C280.022 50.2496 281.28 48.9412 282.205 47.2497C283.13 45.5582 283.594 43.6185 283.594 41.433C283.594 39.2476 283.13 37.3802 282.205 35.6742C281.28 33.9706 280.014 32.6358 278.411 31.6719L278.408 31.6743ZM277.626 44.7703C277.092 45.7461 276.348 46.5075 275.396 47.0545C274.445 47.6015 273.367 47.8738 272.167 47.8738C270.889 47.8738 269.754 47.6135 268.764 47.0931C267.771 46.5726 267.01 45.8184 266.474 44.8281C265.94 43.8402 265.672 42.6956 265.672 41.3921C265.672 40.0885 265.945 38.9199 266.493 37.956C267.042 36.9946 267.805 36.238 268.783 35.6911C269.761 35.1441 270.889 34.8718 272.167 34.8718C273.367 34.8718 274.442 35.1441 275.396 35.6911C276.348 36.238 277.092 37.0115 277.626 38.0139C278.159 39.0162 278.427 40.1536 278.427 41.4282C278.427 42.7029 278.159 43.7896 277.626 44.7654V44.7703Z" fill="#F8F8F8"/>
<path d="M306.327 34.4453C305.597 33.0936 304.578 32.0526 303.274 31.3225C301.969 30.5949 300.47 30.2286 298.774 30.2286C296.216 30.2286 294.197 30.8792 292.709 32.1803C292.221 32.6068 291.796 33.0743 291.417 33.5803V23.2819H286.212V52.0905H291.417V39.3488C291.516 39.0885 291.625 38.8331 291.75 38.5825C292.311 37.4645 293.086 36.5778 294.079 35.9272C295.069 35.2766 296.178 34.9513 297.404 34.9513C299.023 34.9513 300.228 35.3874 301.023 36.2597C301.817 37.132 302.216 38.3753 302.216 39.9873V52.0881H307.421V39.2066C307.421 37.385 307.056 35.7971 306.324 34.4453H306.327Z" fill="#F8F8F8"/>
<g clip-path="url(#clip2_9_980)">
<g clip-path="url(#clip3_9_980)">
<path d="M356.905 30.2168L361.388 31.4127L358.335 20L353.164 21.3917L355.005 28.3119C355.251 29.2405 355.979 29.9709 356.905 30.2168Z" fill="#F8F8F8"/>
<path d="M349.326 53.4623L359.106 43.7015L362.665 57L367.836 55.6083L362.684 36.2991L343.375 31.1525L342 36.3516L355.287 39.9036L345.547 49.6501L349.326 53.4623Z" fill="#F8F8F8"/>
<path d="M367.559 37.5881L368.762 42.0926C369.01 43.0212 369.738 43.7492 370.662 43.9951L377.623 45.8451L378.998 40.646L367.559 37.5881Z" fill="#F8F8F8"/>
<path d="M371.672 23.5353L367.222 27.9801C366.73 28.4718 366.451 29.1235 366.432 29.8205L366.36 32.6397L368.967 32.7304C369.681 32.7304 370.352 32.4511 370.855 31.9474L375.45 27.3475L371.672 23.5353Z" fill="#F8F8F8"/>
</g>
</g>
<path d="M405.083 37.4718C403.503 36.8092 401.527 36.255 399.156 35.8116C397.537 35.4743 396.325 35.1755 395.516 34.9153C394.707 34.6551 394.108 34.3225 393.716 33.9201C393.325 33.5177 393.129 32.9635 393.129 32.2624C393.129 31.4287 393.357 30.7853 393.813 30.3299C394.269 29.8745 394.89 29.5564 395.673 29.3733C396.455 29.1926 397.434 29.101 398.607 29.101C400.015 29.101 401.419 29.2697 402.815 29.6095C404.211 29.9492 405.716 30.4817 407.334 31.2094L408.194 26.3686C406.732 25.665 405.201 25.1445 403.595 24.8072C401.991 24.4699 400.327 24.2988 398.607 24.2988C396.547 24.2988 394.668 24.6169 392.972 25.2554C391.277 25.8939 389.92 26.8168 388.903 28.0264C387.886 29.236 387.376 30.713 387.376 32.4575C387.376 33.9924 387.768 35.2815 388.55 36.3225C389.333 37.3634 390.48 38.2019 391.994 38.8404C393.506 39.479 395.439 40.0043 397.786 40.4211C399.455 40.7609 400.706 41.0645 401.542 41.3392C402.378 41.6114 403.03 41.9897 403.498 42.4716C403.967 42.9535 404.204 43.6499 404.204 44.5607C404.204 45.3944 403.936 46.0498 403.402 46.5317C402.868 47.0136 402.163 47.3389 401.288 47.5076C400.414 47.6763 399.363 47.7606 398.139 47.7606C396.443 47.7606 394.583 47.5389 392.564 47.098C390.543 46.657 388.801 46.0571 387.34 45.3029L386.83 50.1051C388.238 50.9123 389.927 51.5243 391.898 51.9388C393.866 52.3556 395.972 52.5628 398.216 52.5628C400.46 52.5628 402.31 52.2448 404.085 51.6062C405.858 50.9701 407.273 50.0328 408.331 48.7967C409.387 47.5606 409.916 46.0571 409.916 44.2884C409.916 42.6499 409.505 41.2693 408.684 40.1512C407.863 39.0332 406.662 38.1417 405.085 37.4766L405.083 37.4718Z" fill="#F8F8F8"/>
<path d="M429.441 31.6551C427.642 30.7057 425.632 30.231 423.415 30.231C421.198 30.231 419.123 30.7057 417.35 31.6551C415.575 32.6044 414.186 33.9321 413.184 35.6356C412.179 37.3416 411.677 39.2596 411.677 41.3945C411.677 43.5293 412.172 45.4016 413.164 47.0931C414.155 48.7846 415.543 50.1195 417.331 51.0953C419.118 52.0712 421.145 52.5603 423.415 52.5603C425.685 52.5603 427.642 52.0712 429.441 51.0953C431.241 50.1195 432.644 48.7798 433.649 47.0738C434.653 45.3702 435.156 43.4643 435.156 41.3559C435.156 39.2476 434.653 37.3103 433.649 35.6188C432.644 33.9273 431.243 32.6068 429.441 31.6575V31.6551ZM429.089 44.7895C428.54 45.7799 427.77 46.5533 426.779 47.1123C425.787 47.6714 424.678 47.9509 423.454 47.9509C422.229 47.9509 421.041 47.6714 420.05 47.1123C419.058 46.5533 418.275 45.7726 417.703 44.7703C417.128 43.7679 416.843 42.6161 416.843 41.315C416.843 40.0138 417.13 38.8813 417.703 37.9199C418.278 36.9585 419.06 36.2019 420.05 35.6549C421.041 35.108 422.164 34.8357 423.415 34.8357C424.666 34.8357 425.789 35.108 426.779 35.6549C427.77 36.2019 428.54 36.9705 429.089 37.9585C429.637 38.9488 429.91 40.0933 429.91 41.3945C429.91 42.6956 429.637 43.8016 429.089 44.7895Z" fill="#F8F8F8"/>
<path d="M453.425 43.3992C453.326 43.6594 453.217 43.9148 453.092 44.1654C452.531 45.2835 451.754 46.1702 450.763 46.8207C449.771 47.4713 448.665 47.7966 447.438 47.7966C445.819 47.7966 444.614 47.3605 443.819 46.4882C443.022 45.616 442.626 44.3751 442.626 42.7607V30.6599H437.424V43.5413C437.424 45.363 437.788 46.9509 438.52 48.3026C439.25 49.6568 440.267 50.6977 441.573 51.4254C442.877 52.1531 444.377 52.5193 446.073 52.5193C448.628 52.5193 450.652 51.8688 452.138 50.5676C452.626 50.1411 453.051 49.6737 453.43 49.1676V52.0904H458.632V30.6599H453.43V43.3992H453.425Z" fill="#F8F8F8"/>
<path d="M473.028 30.2695C470.576 30.2695 468.736 31.0767 467.511 32.6887C467.221 33.0718 466.96 33.4983 466.728 33.9682V30.6598H461.524V52.0904H466.728V43.269C466.728 40.8764 467.243 38.9559 468.274 37.5126C469.303 36.0693 470.706 35.3464 472.479 35.3464H473.772C474.032 35.3729 474.267 35.385 474.477 35.385H475.102L475.689 30.5442C474.776 30.3635 473.89 30.2719 473.028 30.2719V30.2695Z" fill="#F8F8F8"/>
<path d="M484.16 35.5971C485.165 35.0646 486.305 34.7971 487.585 34.7971C488.628 34.7971 489.606 34.9537 490.519 35.2646C491.432 35.5778 492.357 36.0838 493.297 36.7874L495.449 32.9225C494.171 31.9852 492.867 31.3033 491.536 30.8744C490.205 30.4455 488.744 30.231 487.155 30.231C485.041 30.231 483.112 30.6937 481.363 31.6165C479.614 32.5394 478.233 33.855 477.216 35.5585C476.199 37.2645 475.689 39.209 475.689 41.3945C475.689 43.5799 476.184 45.5124 477.177 47.1919C478.167 48.8713 479.544 50.1725 481.305 51.0953C483.066 52.0182 485.003 52.4808 487.116 52.4808C488.732 52.4808 490.174 52.2784 491.44 51.876C492.705 51.4736 494.041 50.8014 495.449 49.8665L493.374 46.0811C492.435 46.7051 491.49 47.1798 490.536 47.5051C489.585 47.8304 488.611 47.9942 487.621 47.9942C486.343 47.9942 485.196 47.734 484.177 47.2135C483.16 46.6931 482.358 45.9317 481.771 44.9293C481.184 43.9269 480.889 42.7511 480.889 41.3969C480.889 40.0427 481.182 38.8403 481.771 37.8645C482.358 36.8886 483.153 36.1344 484.157 35.5995L484.16 35.5971Z" fill="#F8F8F8"/>
<path d="M512.274 31.4984C510.682 30.6791 508.933 30.2695 507.03 30.2695C504.76 30.2695 502.758 30.7442 501.023 31.6935C499.289 32.6429 497.951 33.9633 497.012 35.6549C496.072 37.3464 495.603 39.2595 495.603 41.392C495.603 43.5244 496.099 45.3678 497.091 47.0713C498.082 48.7773 499.478 50.1098 501.277 51.0736C503.076 52.0374 505.098 52.5169 507.342 52.5169C508.907 52.5169 510.303 52.353 511.527 52.0278C512.754 51.7025 513.926 51.1627 515.049 50.4085L513.718 46.1533C512.882 46.7533 511.919 47.2135 510.822 47.5388C509.726 47.8641 508.656 48.0279 507.615 48.0279C506.207 48.0279 504.994 47.7749 503.975 47.2665C502.958 46.7581 502.175 46.0111 501.627 45.0208C501.328 44.481 501.113 43.8666 500.977 43.1871H516.73C516.911 42.6666 517.063 42.1124 517.179 41.5269C517.298 40.9414 517.356 40.3246 517.356 39.674C517.356 37.9054 516.906 36.303 516.005 34.8717C515.105 33.4405 513.861 32.3152 512.269 31.496L512.274 31.4984ZM501.533 37.8427C502.016 36.8548 502.719 36.0934 503.646 35.5585C504.571 35.026 505.675 34.7585 506.953 34.7585C508.1 34.7585 509.09 34.9874 509.926 35.4404C510.762 35.8958 511.373 36.5922 511.764 37.5295C511.994 38.0765 512.126 38.7029 512.168 39.4041H501.004C501.125 38.8427 501.299 38.3198 501.533 37.8427Z" fill="#F8F8F8"/>
<path d="M537.12 33.5875C536.26 32.4695 535.176 31.631 533.871 31.0695C532.567 30.5105 531.029 30.231 529.253 30.231C527.324 30.231 525.594 30.6864 524.07 31.5972C522.544 32.508 521.343 33.7707 520.471 35.3826C519.597 36.997 519.16 38.8042 519.16 40.809C519.16 42.8137 519.597 44.5124 520.471 46.0594C521.346 47.6087 522.558 48.8304 524.111 49.7291C525.662 50.6279 527.403 51.0761 529.336 51.0761C531.058 51.0761 532.565 50.8038 533.855 50.2568C535.147 49.7098 536.209 48.8785 537.043 47.7581V48.7725C537.043 50.6978 536.422 52.2206 535.183 53.3386C533.944 54.4567 532.229 55.0181 530.038 55.0181C528.604 55.0181 527.208 54.8036 525.853 54.3747C524.495 53.9458 523.283 53.3531 522.213 52.5989L520.179 56.2686C521.587 57.23 523.172 57.9674 524.932 58.4734C526.693 58.9818 528.592 59.2348 530.625 59.2348C534.277 59.2348 537.135 58.2589 539.195 56.3072C541.255 54.3555 542.286 51.6375 542.286 48.1485V30.6599H537.122V33.5875H537.12ZM536.238 44.1076C535.678 45.057 534.915 45.7871 533.949 46.2931C532.983 46.8015 531.862 47.0545 530.584 47.0545C529.41 47.0545 528.348 46.7871 527.396 46.2545C526.444 45.722 525.693 44.9727 525.147 44.0088C524.599 43.0474 524.326 41.98 524.326 40.809C524.326 39.6379 524.599 38.4861 525.147 37.5103C525.696 36.5344 526.444 35.773 527.396 35.226C528.348 34.6791 529.41 34.4068 530.584 34.4068C531.862 34.4068 532.985 34.6598 533.949 35.1682C534.912 35.6766 535.676 36.4115 536.238 37.3729C536.799 38.3368 537.079 39.4548 537.079 40.7294C537.079 42.0041 536.799 43.1559 536.238 44.1052V44.1076Z" fill="#F8F8F8"/>
<path d="M551.245 32.6887C550.955 33.0718 550.694 33.4983 550.462 33.9682V30.6599H545.257V52.0904H550.462V43.2691C550.462 40.8764 550.977 38.956 552.008 37.5126C553.037 36.0693 554.44 35.3465 556.213 35.3465H557.505C557.766 35.373 558 35.385 558.21 35.385H558.836L559.423 30.5442C558.51 30.3635 557.624 30.2719 556.761 30.2719C554.31 30.2719 552.469 31.0791 551.245 32.6911V32.6887Z" fill="#F8F8F8"/>
<path d="M577.166 32.5924C575.482 31.0189 572.934 30.231 569.516 30.231C566.908 30.231 564.285 30.6599 561.652 31.5201L562.278 36.0862C563.241 35.6694 564.299 35.3513 565.447 35.1296C566.594 34.908 567.768 34.7971 568.968 34.7971C570.794 34.7971 572.171 35.1489 573.096 35.8501C574.021 36.5537 574.485 37.5946 574.485 38.9729V39.1367C573.634 39.062 572.709 38.9922 571.707 38.9319C570.403 38.8548 569.125 38.8138 567.872 38.8138C565.055 38.8138 562.966 39.4524 561.611 40.727C560.254 42.0017 559.577 43.6426 559.577 45.6449C559.577 46.9726 559.877 48.1557 560.478 49.1966C561.077 50.2375 561.947 51.052 563.08 51.6351C564.215 52.2206 565.524 52.5146 567.012 52.5146C568.5 52.5146 569.777 52.3001 570.925 51.8712C572.072 51.4423 572.999 50.8833 573.702 50.1917C574.002 49.8978 574.26 49.599 574.485 49.2954V52.0857H579.69V39.3223C579.69 36.4091 578.849 34.1634 577.166 32.5876V32.5924ZM571.982 47.3461C571.123 47.828 570.038 48.0689 568.734 48.0689C567.43 48.0689 566.328 47.8424 565.584 47.3846C564.84 46.9292 564.468 46.2594 564.468 45.3751C564.468 44.4377 564.845 43.7221 565.604 43.2281C566.36 42.7342 567.637 42.486 569.439 42.486C570.429 42.486 571.33 42.5053 572.139 42.5438C572.934 42.5824 573.714 42.6523 574.485 42.7535C574.465 43.7341 574.267 44.6136 573.881 45.3919C573.477 46.2112 572.845 46.8617 571.982 47.3437V47.3461Z" fill="#F8F8F8"/>
<path d="M600.408 31.6743C598.804 30.7129 597.048 30.231 595.145 30.231C593.657 30.231 592.276 30.484 590.998 30.9924C589.72 31.5009 588.612 32.2358 587.672 33.1972V30.6599H582.467V58.8035H587.672V49.6303C588.271 50.2809 588.969 50.8158 589.766 51.2303C590.561 51.6471 591.397 51.9724 592.271 52.2061C593.145 52.4399 594.09 52.5579 595.109 52.5579C597.065 52.5579 598.838 52.0953 600.43 51.1724C602.022 50.2496 603.28 48.9412 604.205 47.2497C605.13 45.5582 605.594 43.6185 605.594 41.433C605.594 39.2476 605.13 37.3802 604.205 35.6742C603.28 33.9706 602.014 32.6358 600.411 31.6719L600.408 31.6743ZM599.626 44.7703C599.092 45.7461 598.348 46.5075 597.396 47.0545C596.445 47.6015 595.367 47.8738 594.167 47.8738C592.889 47.8738 591.754 47.6135 590.764 47.0931C589.771 46.5726 589.01 45.8184 588.474 44.8281C587.94 43.8402 587.672 42.6956 587.672 41.3921C587.672 40.0885 587.945 38.9199 588.493 37.956C589.042 36.9946 589.805 36.238 590.783 35.6911C591.761 35.1441 592.889 34.8718 594.167 34.8718C595.367 34.8718 596.442 35.1441 597.396 35.6911C598.348 36.238 599.092 37.0115 599.626 38.0139C600.159 39.0162 600.427 40.1536 600.427 41.4282C600.427 42.7029 600.159 43.7896 599.626 44.7654V44.7703Z" fill="#F8F8F8"/>
<path d="M628.327 34.4453C627.597 33.0936 626.578 32.0526 625.274 31.3225C623.969 30.5949 622.47 30.2286 620.774 30.2286C618.216 30.2286 616.197 30.8792 614.709 32.1803C614.221 32.6068 613.796 33.0743 613.417 33.5803V23.2819H608.212V52.0905H613.417V39.3488C613.516 39.0885 613.625 38.8331 613.75 38.5825C614.311 37.4645 615.086 36.5778 616.079 35.9272C617.069 35.2766 618.178 34.9513 619.404 34.9513C621.023 34.9513 622.228 35.3874 623.023 36.2597C623.817 37.132 624.216 38.3753 624.216 39.9873V52.0881H629.421V39.2066C629.421 37.385 629.056 35.7971 628.324 34.4453H628.327Z" fill="#F8F8F8"/>
<defs>
<clipPath id="clip0_9_980">
<rect width="37" height="37" fill="white" transform="translate(20 20)"/>
</clipPath>
<clipPath id="clip1_9_980">
<rect width="37" height="37" fill="white" transform="translate(20 20)"/>
</clipPath>
<clipPath id="clip2_9_980">
<rect width="37" height="37" fill="white" transform="translate(342 20)"/>
</clipPath>
<clipPath id="clip3_9_980">
<rect width="37" height="37" fill="white" transform="translate(342 20)"/>
</clipPath>
</defs>
</svg>
